<svg xmlns="http://www.w3.org/2000/svg" version="1.1" xmlns:xlink="http://www.w3.org/1999/xlink" xmlns:svgjs="http://svgjs.com/svgjs" width="512" height="512" x="0" y="0" viewBox="0 0 412.735 412.735" style="enable-background:new 0 0 512 512" xml:space="preserve" class=""><g><path d="M295.706 35.522a115.985 115.985 0 0 0-89.339 41.273 114.413 114.413 0 0 0-89.339-41.273C52.395 35.522 0 87.917 0 152.55c0 110.76 193.306 218.906 201.143 223.086a9.404 9.404 0 0 0 10.449 0c7.837-4.18 201.143-110.759 201.143-223.086 0-64.633-52.396-117.028-117.029-117.028zm-89.339 319.216C176.065 336.975 20.898 242.412 20.898 152.55c0-53.091 43.039-96.131 96.131-96.131a94.041 94.041 0 0 1 80.457 43.363c3.557 4.905 10.418 5.998 15.323 2.44a10.968 10.968 0 0 0 2.44-2.44c29.055-44.435 88.631-56.903 133.066-27.848a96.129 96.129 0 0 1 43.521 80.615c.001 90.907-155.167 184.948-185.469 202.189z" fill="#e28778" data-original="#000000" class=""></path></g></svg>